<svg xmlns="http://www.w3.org/2000/svg" width="1162.5" height="142.38" viewBox="0 0 1162.5 142.38"><defs><style>.cls-1{fill:#fff;stroke-width:0.5px;}.cls-1,.cls-12{stroke:#000;}.cls-1,.cls-10,.cls-11,.cls-3,.cls-6,.cls-8{stroke-miterlimit:10;}.cls-2{fill:#4d4d4d;}.cls-10,.cls-11,.cls-12,.cls-3,.cls-6,.cls-8{fill:none;}.cls-3{stroke:#ed1c24;}.cls-3,.cls-6,.cls-8{stroke-width:0.75px;}.cls-4{fill:#ed1c24;}.cls-5{fill:#ececec;}.cls-6{stroke:#333;}.cls-7{fill:#333;}.cls-8{stroke:#22b573;}.cls-9{fill:#22b573;}.cls-10,.cls-11{stroke:#ccc;}.cls-11{stroke-dasharray:4.7 4.7;}.cls-12{stroke-linecap:round;stroke-linejoin:round;stroke-width:2px;}</style></defs><g id="Layer_2" data-name="Layer 2"><g id="Layer_1-2" data-name="Layer 1"><rect class="cls-1" x="0.25" y="29" width="161" height="32" rx="3.94"/><path class="cls-2" d="M33.05,46.88a.92.92,0,0,0-.35-.77,4.61,4.61,0,0,0-1.27-.56A9.44,9.44,0,0,1,30,45a2.38,2.38,0,0,1-1.46-2.12,2,2,0,0,1,.39-1.23A2.57,2.57,0,0,1,30,40.77a4.32,4.32,0,0,1,1.64-.3,3.86,3.86,0,0,1,1.63.33,2.55,2.55,0,0,1,1.11.93,2.47,2.47,0,0,1,.4,1.37H33.06a1.17,1.17,0,0,0-.37-.91,1.51,1.51,0,0,0-1-.32,1.63,1.63,0,0,0-1,.27.86.86,0,0,0-.36.72.81.81,0,0,0,.42.69,4.54,4.54,0,0,0,1.23.53,5.3,5.3,0,0,1,2.19,1.12,2.23,2.23,0,0,1,.69,1.66A2.05,2.05,0,0,1,34,48.6a3.67,3.67,0,0,1-2.26.63,4.37,4.37,0,0,1-1.79-.36,2.79,2.79,0,0,1-1.23-1,2.46,2.46,0,0,1-.43-1.45H30c0,.94.57,1.41,1.69,1.41a1.63,1.63,0,0,0,1-.25A.84.84,0,0,0,33.05,46.88Z"/><path class="cls-2" d="M41.14,45.42H37.76V47.7h4v1.41H36V40.58h5.71V42h-4v2h3.38Z"/><path class="cls-2" d="M44.51,47.7h3.74v1.41h-5.5V40.58h1.76Z"/><path class="cls-2" d="M54.39,45.42H51V47.7h4v1.41H49.25V40.58H55V42H51v2h3.38Z"/><path class="cls-2" d="M62.7,46.27a3,3,0,0,1-1,2.17,3.54,3.54,0,0,1-2.41.79,3.21,3.21,0,0,1-2.58-1.1,4.53,4.53,0,0,1-.94-3v-.52a5,5,0,0,1,.43-2.16A3.2,3.2,0,0,1,57.42,41a3.42,3.42,0,0,1,1.87-.5,3.47,3.47,0,0,1,2.38.79,3.2,3.2,0,0,1,1,2.22H61a1.75,1.75,0,0,0-.46-1.2,1.68,1.68,0,0,0-1.2-.37,1.51,1.51,0,0,0-1.32.63,3.47,3.47,0,0,0-.44,2v.65a3.78,3.78,0,0,0,.42,2,1.47,1.47,0,0,0,1.32.64,1.72,1.72,0,0,0,1.21-.38,1.65,1.65,0,0,0,.46-1.15Z"/><path class="cls-2" d="M70.11,42H67.49v7.1H65.74V42H63.16V40.58h7Z"/><path class="cls-2" d="M80.44,46.27a3,3,0,0,1-1,2.17,3.58,3.58,0,0,1-2.42.79,3.22,3.22,0,0,1-2.58-1.1,4.53,4.53,0,0,1-.94-3v-.52a5,5,0,0,1,.43-2.16A3.2,3.2,0,0,1,75.16,41a3.88,3.88,0,0,1,4.25.29,3.2,3.2,0,0,1,1,2.22H78.7a1.85,1.85,0,0,0-.46-1.2A1.72,1.72,0,0,0,77,41.91a1.49,1.49,0,0,0-1.31.63,3.55,3.55,0,0,0-.45,2v.65a3.78,3.78,0,0,0,.42,2A1.48,1.48,0,0,0,77,47.8a1.7,1.7,0,0,0,1.21-.38,1.61,1.61,0,0,0,.46-1.15Z"/><path class="cls-2" d="M86.41,47.36H83.33l-.58,1.75H80.88l3.17-8.53h1.63l3.19,8.53H87Zm-2.6-1.43h2.13l-1.07-3.19Z"/><path class="cls-2" d="M95.39,42H92.78v7.1H91V42H88.44V40.58h7Z"/><path class="cls-2" d="M101.52,45.42H98.15V47.7h4v1.41H96.39V40.58h5.71V42H98.15v2h3.37Z"/><path class="cls-2" d="M109.89,48a3,3,0,0,1-1.34.88,5.6,5.6,0,0,1-1.92.31,3.8,3.8,0,0,1-1.94-.48,3.16,3.16,0,0,1-1.29-1.41,4.84,4.84,0,0,1-.47-2.16V44.6a5.19,5.19,0,0,1,.43-2.21A3.22,3.22,0,0,1,104.6,41a4.13,4.13,0,0,1,4.28.23,3.05,3.05,0,0,1,1,2.11h-1.71a1.73,1.73,0,0,0-.52-1.08,1.68,1.68,0,0,0-1.1-.34,1.56,1.56,0,0,0-1.37.68,3.51,3.51,0,0,0-.47,2v.55a3.34,3.34,0,0,0,.51,2,1.74,1.74,0,0,0,1.49.69,2,2,0,0,0,1.41-.42V45.93h-1.6v-1.3h3.36Z"/><path class="cls-2" d="M118.32,45a5.25,5.25,0,0,1-.44,2.21,3.4,3.4,0,0,1-1.28,1.47,3.78,3.78,0,0,1-3.79,0,3.38,3.38,0,0,1-1.29-1.45,5.06,5.06,0,0,1-.46-2.18v-.42a5.18,5.18,0,0,1,.45-2.22A3.36,3.36,0,0,1,112.79,41a3.79,3.79,0,0,1,3.8,0,3.36,3.36,0,0,1,1.28,1.47,5.16,5.16,0,0,1,.45,2.21Zm-1.78-.38a3.57,3.57,0,0,0-.48-2,1.69,1.69,0,0,0-2.73,0,3.44,3.44,0,0,0-.49,2V45a3.65,3.65,0,0,0,.48,2,1.68,1.68,0,0,0,2.74,0,3.58,3.58,0,0,0,.48-2Z"/><path class="cls-2" d="M122.76,46h-1.4v3.12H119.6V40.58h3.17a3.56,3.56,0,0,1,2.33.68,2.31,2.31,0,0,1,.82,1.9,2.58,2.58,0,0,1-.38,1.46,2.55,2.55,0,0,1-1.14.93L126.25,49v.08h-1.89Zm-1.4-1.42h1.42a1.41,1.41,0,0,0,1-.34,1.2,1.2,0,0,0,.37-.93,1.29,1.29,0,0,0-.35-.95,1.43,1.43,0,0,0-1-.34h-1.41Z"/><path class="cls-2" d="M129.92,44.43l1.77-3.85h1.93L130.82,46v3.09H129V46l-2.8-5.44h1.93Z"/><rect class="cls-1" x="214.81" y="29" width="127.17" height="50" rx="3.94"/><path class="cls-2" d="M261,45.38v3h-1.75V39.85h3.33a3.92,3.92,0,0,1,1.69.35,2.66,2.66,0,0,1,1.12,1,2.82,2.82,0,0,1,.39,1.48,2.45,2.45,0,0,1-.86,2,3.52,3.52,0,0,1-2.37.73ZM261,44h1.58a1.6,1.6,0,0,0,1.06-.32,1.22,1.22,0,0,0,.36-.94,1.44,1.44,0,0,0-.36-1,1.39,1.39,0,0,0-1-.39H261Z"/><path class="cls-2" d="M274,48.38h-1.76V44.73h-3.42v3.65H267V39.85h1.76v3.46h3.42V39.85H274Z"/><path class="cls-2" d="M282.51,44.31a5.1,5.1,0,0,1-.44,2.21A3.4,3.4,0,0,1,280.79,48,3.78,3.78,0,0,1,277,48a3.44,3.44,0,0,1-1.29-1.45,5.06,5.06,0,0,1-.46-2.18v-.42a5.18,5.18,0,0,1,.45-2.22A3.31,3.31,0,0,1,277,40.25a3.52,3.52,0,0,1,1.89-.51,3.58,3.58,0,0,1,1.9.51,3.36,3.36,0,0,1,1.28,1.47,5.13,5.13,0,0,1,.45,2.21Zm-1.78-.39a3.56,3.56,0,0,0-.48-2,1.69,1.69,0,0,0-2.73,0,3.52,3.52,0,0,0-.49,2v.41a3.65,3.65,0,0,0,.48,2,1.68,1.68,0,0,0,2.74,0,3.58,3.58,0,0,0,.48-2Z"/><path class="cls-2" d="M290.73,48.38H289l-3.42-5.61v5.61h-1.76V39.85h1.76L289,45.48V39.85h1.75Z"/><path class="cls-2" d="M297.4,44.69H294V47h4v1.41h-5.72V39.85H298v1.43h-4v2h3.38Z"/><path class="cls-2" d="M233.64,63h-3.08L230,64.78H228.1l3.18-8.53h1.63l3.19,8.53h-1.87ZM231,61.6h2.14l-1.08-3.19Z"/><path class="cls-2" d="M243.26,56.25v5.62a2.91,2.91,0,0,1-.88,2.22,3.38,3.38,0,0,1-2.39.81,3.42,3.42,0,0,1-2.38-.79,2.84,2.84,0,0,1-.89-2.17V56.25h1.75v5.63a1.6,1.6,0,0,0,.41,1.22,1.5,1.5,0,0,0,1.11.39c1,0,1.49-.52,1.5-1.56V56.25Z"/><path class="cls-2" d="M251.12,57.68h-2.61v7.1h-1.76v-7.1h-2.58V56.25h7Z"/><path class="cls-2" d="M259.06,64.78h-1.75V61.13h-3.43v3.65h-1.76V56.25h1.76v3.46h3.43V56.25h1.75Z"/><path class="cls-2" d="M265.73,61.09h-3.37v2.28h4v1.41H260.6V56.25h5.71v1.43h-3.95v2h3.37Z"/><path class="cls-2" d="M274.29,64.78h-1.76l-3.42-5.61v5.61h-1.76V56.25h1.76l3.43,5.63V56.25h1.75Z"/><path class="cls-2" d="M282.07,57.68h-2.61v7.1H277.7v-7.1h-2.57V56.25h6.94Z"/><path class="cls-2" d="M285,64.78h-1.76V56.25H285Z"/><path class="cls-2" d="M293.27,61.94a3,3,0,0,1-1,2.17,3.54,3.54,0,0,1-2.41.79,3.21,3.21,0,0,1-2.58-1.1,4.53,4.53,0,0,1-.94-3v-.52a5.13,5.13,0,0,1,.43-2.17A3.22,3.22,0,0,1,288,56.64a3.88,3.88,0,0,1,4.25.29,3.2,3.2,0,0,1,1,2.22h-1.75a1.85,1.85,0,0,0-.46-1.2,1.72,1.72,0,0,0-1.21-.37,1.49,1.49,0,0,0-1.31.63,3.46,3.46,0,0,0-.45,1.95v.65a3.78,3.78,0,0,0,.42,2,1.48,1.48,0,0,0,1.32.64,1.7,1.7,0,0,0,1.21-.38,1.65,1.65,0,0,0,.46-1.15Z"/><path class="cls-2" d="M299.24,63h-3.08l-.59,1.75h-1.86l3.17-8.53h1.63l3.19,8.53h-1.87Zm-2.61-1.43h2.14l-1.07-3.19Z"/><path class="cls-2" d="M308.22,57.68h-2.61v7.1h-1.76v-7.1h-2.58V56.25h7Z"/><path class="cls-2" d="M311.09,64.78h-1.76V56.25h1.76Z"/><path class="cls-2" d="M319.73,60.71a5.1,5.1,0,0,1-.45,2.21A3.45,3.45,0,0,1,318,64.39a3.79,3.79,0,0,1-3.8,0,3.44,3.44,0,0,1-1.29-1.45,5.06,5.06,0,0,1-.46-2.18v-.42a5,5,0,0,1,.46-2.22,3.36,3.36,0,0,1,1.28-1.47,3.78,3.78,0,0,1,3.79,0,3.36,3.36,0,0,1,1.28,1.47,5,5,0,0,1,.46,2.21ZM318,60.32a3.48,3.48,0,0,0-.49-2,1.69,1.69,0,0,0-2.73,0,3.6,3.6,0,0,0-.49,2v.41a3.65,3.65,0,0,0,.48,2,1.56,1.56,0,0,0,1.39.72,1.53,1.53,0,0,0,1.35-.69,3.66,3.66,0,0,0,.49-2Z"/><path class="cls-2" d="M327.94,64.78h-1.76l-3.42-5.61v5.61H321V56.25h1.76l3.43,5.63V56.25h1.75Z"/><rect class="cls-1" x="385.53" y="29" width="130" height="50" rx="4.11"/><path class="cls-2" d="M416.52,45.9h-3.38v3.48h-1.76V40.85h5.56v1.43h-3.8v2.2h3.38Z"/><path class="cls-2" d="M419.83,49.38h-1.76V40.85h1.76Z"/><path class="cls-2" d="M423.21,48H427v1.41h-5.49V40.85h1.75Z"/><path class="cls-2" d="M429.71,48h3.73v1.41H428V40.85h1.76Z"/><path class="cls-2" d="M439.31,49.38h-1.76V40.85h1.76Z"/><path class="cls-2" d="M442.7,48h3.73v1.41h-5.49V40.85h1.76Z"/><path class="cls-2" d="M449.19,46.38v3h-1.75V40.85h3.32a3.94,3.94,0,0,1,1.7.35,2.66,2.66,0,0,1,1.12,1,2.82,2.82,0,0,1,.39,1.48,2.45,2.45,0,0,1-.86,2,3.52,3.52,0,0,1-2.37.73Zm0-1.43h1.57a1.61,1.61,0,0,0,1.07-.32,1.22,1.22,0,0,0,.36-.94,1.44,1.44,0,0,0-.36-1,1.39,1.39,0,0,0-1-.39h-1.62Z"/><path class="cls-2" d="M463.3,45.9h-3.38v3.48h-1.75V40.85h5.55v1.43h-3.8v2.2h3.38Z"/><path class="cls-2" d="M471.75,45.31a5.1,5.1,0,0,1-.45,2.21A3.45,3.45,0,0,1,470,49a3.79,3.79,0,0,1-3.8,0,3.44,3.44,0,0,1-1.29-1.45,5.21,5.21,0,0,1-.46-2.18v-.42a5,5,0,0,1,.46-2.22,3.36,3.36,0,0,1,1.28-1.47,3.78,3.78,0,0,1,3.79,0,3.36,3.36,0,0,1,1.28,1.47,5,5,0,0,1,.46,2.21ZM470,44.92a3.56,3.56,0,0,0-.48-2,1.7,1.7,0,0,0-2.74,0,3.6,3.6,0,0,0-.49,2v.41a3.65,3.65,0,0,0,.48,2,1.69,1.69,0,0,0,2.75,0,3.75,3.75,0,0,0,.48-2Z"/><path class="cls-2" d="M476.18,46.26h-1.4v3.12H473V40.85h3.17a3.61,3.61,0,0,1,2.34.68,2.34,2.34,0,0,1,.82,1.9,2.39,2.39,0,0,1-1.53,2.39l1.85,3.48v.08h-1.89Zm-1.4-1.42h1.42a1.5,1.5,0,0,0,1-.34,1.2,1.2,0,0,0,.36-.93,1.33,1.33,0,0,0-.34-1,1.44,1.44,0,0,0-1.06-.34h-1.41Z"/><path class="cls-2" d="M483,40.85,485.17,47l2.18-6.19h2.31v8.53H487.9V47.05l.17-4-2.3,6.35h-1.21L482.26,43l.18,4v2.33h-1.76V40.85Z"/><path class="cls-2" d="M422.61,63.49a2,2,0,0,1,.33-1.1,4.89,4.89,0,0,1,1.22-1.12,6.71,6.71,0,0,1-.6-1,2.14,2.14,0,0,1-.21-.93,2.19,2.19,0,0,1,.63-1.62,2.27,2.27,0,0,1,1.69-.62,2.21,2.21,0,0,1,1.57.56,1.86,1.86,0,0,1,.61,1.42,2.23,2.23,0,0,1-1,1.8l-.66.48,1.47,1.71a3.19,3.19,0,0,0,.35-1.5h1.44a4.34,4.34,0,0,1-.77,2.69l1.28,1.48H428l-.44-.5a3.88,3.88,0,0,1-2.17.62,3,3,0,0,1-2-.66A2.22,2.22,0,0,1,422.61,63.49Zm2.87,1.05a2.21,2.21,0,0,0,1.16-.34L425,62.26l-.13.08a1.37,1.37,0,0,0-.52,1,1.12,1.12,0,0,0,.33.83A1.15,1.15,0,0,0,425.48,64.54Zm-.62-5.18a2,2,0,0,0,.52,1.1l.45-.3a1.48,1.48,0,0,0,.48-.43.91.91,0,0,0,.13-.5.67.67,0,0,0-.22-.51.72.72,0,0,0-.55-.22.79.79,0,0,0-.59.23A.93.93,0,0,0,424.86,59.36Z"/><path class="cls-2" d="M440.28,57.25v5.62a2.87,2.87,0,0,1-.88,2.22,3.94,3.94,0,0,1-4.76,0,2.81,2.81,0,0,1-.9-2.17V57.25h1.76v5.63a1.6,1.6,0,0,0,.4,1.22,1.53,1.53,0,0,0,1.11.39c1,0,1.49-.52,1.51-1.56V57.25Z"/><path class="cls-2" d="M443.48,62.78v3h-1.76V57.25h3.33a3.92,3.92,0,0,1,1.69.35,2.6,2.6,0,0,1,1.12,1,2.82,2.82,0,0,1,.39,1.48,2.44,2.44,0,0,1-.85,2,3.56,3.56,0,0,1-2.38.73Zm0-1.43h1.57a1.58,1.58,0,0,0,1.06-.32,1.19,1.19,0,0,0,.37-.94,1.41,1.41,0,0,0-.37-1,1.39,1.39,0,0,0-1-.39h-1.61Z"/><path class="cls-2" d="M451.22,64.37H455v1.41h-5.49V57.25h1.76Z"/><path class="cls-2" d="M462.59,61.71a5.25,5.25,0,0,1-.44,2.21,3.47,3.47,0,0,1-1.28,1.47,3.78,3.78,0,0,1-3.79,0,3.32,3.32,0,0,1-1.29-1.45,4.92,4.92,0,0,1-.46-2.18v-.42a5.18,5.18,0,0,1,.45-2.22,3.36,3.36,0,0,1,1.28-1.47,3.58,3.58,0,0,1,1.9-.51,3.52,3.52,0,0,1,1.89.51,3.38,3.38,0,0,1,1.29,1.47,5.13,5.13,0,0,1,.45,2.21Zm-1.78-.39a3.56,3.56,0,0,0-.48-2,1.7,1.7,0,0,0-2.74,0,3.52,3.52,0,0,0-.48,2v.41a3.65,3.65,0,0,0,.48,2,1.68,1.68,0,0,0,2.74,0,3.58,3.58,0,0,0,.48-2Z"/><path class="cls-2" d="M468.56,64h-3.08l-.59,1.75H463l3.17-8.53h1.63L471,65.78h-1.87ZM466,62.6h2.13L467,59.41Z"/><path class="cls-2" d="M471.82,65.78V57.25h2.63a4,4,0,0,1,2,.51,3.55,3.55,0,0,1,1.38,1.44,4.34,4.34,0,0,1,.5,2.12v.4a4.38,4.38,0,0,1-.49,2.11,3.42,3.42,0,0,1-1.38,1.44,4,4,0,0,1-2,.51Zm1.76-7.1v5.69h.85A1.88,1.88,0,0,0,476,63.7a3,3,0,0,0,.56-1.93v-.45a3.07,3.07,0,0,0-.54-2,1.88,1.88,0,0,0-1.57-.67Z"/><rect class="cls-1" x="559.08" y="29" width="110" height="32" rx="3.94"/><path class="cls-2" d="M585.79,47.36h-3.08l-.58,1.75h-1.87l3.17-8.53h1.63l3.19,8.53h-1.86Zm-2.6-1.43h2.13l-1.07-3.19Z"/><path class="cls-2" d="M590.81,46.11v3h-1.76V40.58h3.33a3.92,3.92,0,0,1,1.69.35,2.6,2.6,0,0,1,1.12,1,2.85,2.85,0,0,1,.39,1.48,2.44,2.44,0,0,1-.85,2,3.56,3.56,0,0,1-2.38.73Zm0-1.43h1.57a1.53,1.53,0,0,0,1.06-.32,1.18,1.18,0,0,0,.37-.94A1.32,1.32,0,0,0,592.42,42h-1.61Z"/><path class="cls-2" d="M598.55,46.11v3h-1.76V40.58h3.33a3.92,3.92,0,0,1,1.69.35,2.6,2.6,0,0,1,1.12,1,2.85,2.85,0,0,1,.4,1.48,2.45,2.45,0,0,1-.86,2,3.56,3.56,0,0,1-2.38.73Zm0-1.43h1.57a1.53,1.53,0,0,0,1.06-.32,1.18,1.18,0,0,0,.37-.94A1.32,1.32,0,0,0,600.16,42h-1.61Z"/><path class="cls-2" d="M607.69,46h-1.4v3.12h-1.76V40.58h3.17a3.56,3.56,0,0,1,2.33.68,2.31,2.31,0,0,1,.82,1.9,2.36,2.36,0,0,1-1.52,2.39L611.18,49v.08h-1.89Zm-1.4-1.42h1.42a1.41,1.41,0,0,0,1-.34,1.17,1.17,0,0,0,.37-.93,1.29,1.29,0,0,0-.35-.95,1.41,1.41,0,0,0-1-.34h-1.41Z"/><path class="cls-2" d="M619.2,45a5.1,5.1,0,0,1-.45,2.21,3.38,3.38,0,0,1-1.27,1.47,3.79,3.79,0,0,1-3.8,0,3.36,3.36,0,0,1-1.28-1.45,5.06,5.06,0,0,1-.47-2.18v-.42a5,5,0,0,1,.46-2.22A3.36,3.36,0,0,1,613.67,41a3.78,3.78,0,0,1,3.79,0,3.36,3.36,0,0,1,1.28,1.47,5,5,0,0,1,.46,2.21Zm-1.78-.38a3.57,3.57,0,0,0-.48-2,1.7,1.7,0,0,0-2.74,0,3.6,3.6,0,0,0-.49,2V45a3.65,3.65,0,0,0,.48,2,1.58,1.58,0,0,0,1.39.72,1.56,1.56,0,0,0,1.36-.69,3.75,3.75,0,0,0,.48-2Z"/><path class="cls-2" d="M623.5,47l1.93-6.42h2l-3,8.53h-1.84l-3-8.53h2Z"/><path class="cls-2" d="M633.33,45.42H630V47.7h4v1.41h-5.72V40.58h5.71V42H630v2h3.38Z"/><path class="cls-2" d="M634.94,49.11V40.58h2.63a4,4,0,0,1,2,.51A3.64,3.64,0,0,1,641,42.53a4.46,4.46,0,0,1,.49,2.13v.39a4.38,4.38,0,0,1-.49,2.11,3.42,3.42,0,0,1-1.38,1.44,4,4,0,0,1-2,.51ZM636.7,42V47.7h.85a1.92,1.92,0,0,0,1.58-.67,3.08,3.08,0,0,0,.55-1.93v-.45a3.08,3.08,0,0,0-.54-2,1.88,1.88,0,0,0-1.57-.67Z"/><path class="cls-2" d="M644,46.5a3.61,3.61,0,0,1,.2-1.31,2.78,2.78,0,0,1,.73-1,4.07,4.07,0,0,0,.71-.76,1.29,1.29,0,0,0,.17-.63c0-.66-.3-1-.91-1a.94.94,0,0,0-.7.27,1,1,0,0,0-.27.73h-1.7A2.25,2.25,0,0,1,643,41.1a3.35,3.35,0,0,1,3.87,0,2.15,2.15,0,0,1,.68,1.7,2.06,2.06,0,0,1-.22.94,4,4,0,0,1-.78,1l-.47.45a1.59,1.59,0,0,0-.51,1l0,.36Zm-.17,1.8a.86.86,0,0,1,.27-.65.94.94,0,0,1,.68-.25.92.92,0,0,1,.68.25.86.86,0,0,1,.27.65.84.84,0,0,1-.26.63.93.93,0,0,1-.69.25,1,1,0,0,1-.69-.25A.84.84,0,0,1,643.84,48.3Z"/><rect class="cls-1" x="722.64" y="29" width="115.33" height="50" rx="3.8"/><path class="cls-2" d="M766.83,40.27l2.2,6.19,2.18-6.19h2.3V48.8h-1.76V46.47l.18-4-2.31,6.36h-1.2l-2.3-6.35.18,4V48.8h-1.76V40.27Z"/><path class="cls-2" d="M780,47h-3.08l-.59,1.76h-1.87l3.18-8.53h1.63l3.19,8.53h-1.87Zm-2.61-1.42h2.14l-1.08-3.2Z"/><path class="cls-2" d="M785.9,45.38l-.91,1V48.8h-1.76V40.27H785v3.87l.77-1.07,2.17-2.8h2.17l-3,3.79,3.11,4.74h-2.09Z"/><path class="cls-2" d="M796,45.1H792.6v2.29h4V48.8h-5.72V40.27h5.7v1.42H792.6v2H796Z"/><path class="cls-2" d="M755.85,62.19v3h-1.76V56.67h3.33a3.89,3.89,0,0,1,1.69.35,2.54,2.54,0,0,1,1.12,1,2.7,2.7,0,0,1,.4,1.47,2.45,2.45,0,0,1-.86,2,3.6,3.6,0,0,1-2.38.72Zm0-1.42h1.57a1.56,1.56,0,0,0,1.07-.33,1.21,1.21,0,0,0,.36-.94,1.4,1.4,0,0,0-.37-1,1.36,1.36,0,0,0-1-.4h-1.61Z"/><path class="cls-2" d="M765.61,63.44h-3.08l-.59,1.76h-1.87l3.18-8.53h1.63l3.19,8.53H766.2ZM763,62h2.13l-1.07-3.2Z"/><path class="cls-2" d="M770.93,60.51l1.77-3.84h1.93l-2.81,5.44V65.2H770V62.11l-2.8-5.44h1.92Z"/><path class="cls-2" d="M777.7,56.67l2.19,6.19,2.18-6.19h2.31V65.2h-1.76V62.87l.17-4-2.3,6.36h-1.21L777,58.85l.17,4V65.2H775.4V56.67Z"/><path class="cls-2" d="M791.05,61.5h-3.38v2.29h4V65.2h-5.71V56.67h5.7v1.42h-4v2h3.38Z"/><path class="cls-2" d="M799.6,65.2h-1.75l-3.43-5.61V65.2h-1.75V56.67h1.75l3.43,5.62V56.67h1.75Z"/><path class="cls-2" d="M807.39,58.09h-2.61V65.2H803V58.09h-2.58V56.67h6.95Z"/><rect class="cls-1" x="891.53" y="29" width="114.17" height="32" rx="3.94"/><path class="cls-2" d="M924.57,46.88a.92.92,0,0,0-.35-.77,4.76,4.76,0,0,0-1.27-.56,9,9,0,0,1-1.44-.58,2.38,2.38,0,0,1-1.46-2.12,2,2,0,0,1,.39-1.23,2.57,2.57,0,0,1,1.12-.85,4.28,4.28,0,0,1,1.64-.3,3.86,3.86,0,0,1,1.63.33,2.67,2.67,0,0,1,1.11.93,2.47,2.47,0,0,1,.39,1.37h-1.75a1.17,1.17,0,0,0-.37-.91,1.51,1.51,0,0,0-1-.32,1.63,1.63,0,0,0-1,.27.86.86,0,0,0-.36.72.81.81,0,0,0,.42.69,4.54,4.54,0,0,0,1.23.53,5.3,5.3,0,0,1,2.19,1.12,2.22,2.22,0,0,1,.68,1.66,2.07,2.07,0,0,1-.83,1.74,3.67,3.67,0,0,1-2.26.63,4.34,4.34,0,0,1-1.79-.36,2.88,2.88,0,0,1-1.24-1,2.52,2.52,0,0,1-.42-1.45h1.76c0,.94.57,1.41,1.69,1.41a1.65,1.65,0,0,0,1-.25A.84.84,0,0,0,924.57,46.88Z"/><path class="cls-2" d="M934,40.58V46.2a2.87,2.87,0,0,1-.88,2.22,3.94,3.94,0,0,1-4.76,0,2.81,2.81,0,0,1-.9-2.17V40.58h1.76v5.63a1.64,1.64,0,0,0,.4,1.23,1.57,1.57,0,0,0,1.11.38c1,0,1.49-.52,1.51-1.56V40.58Z"/><path class="cls-2" d="M942.12,46.27a3,3,0,0,1-1,2.17,3.54,3.54,0,0,1-2.41.79,3.24,3.24,0,0,1-2.59-1.1,4.59,4.59,0,0,1-.94-3v-.52a5,5,0,0,1,.44-2.16A3.2,3.2,0,0,1,936.84,41a3.4,3.4,0,0,1,1.87-.5,3.47,3.47,0,0,1,2.38.79,3.2,3.2,0,0,1,1,2.22h-1.76a1.75,1.75,0,0,0-.46-1.2,1.68,1.68,0,0,0-1.2-.37,1.5,1.5,0,0,0-1.32.63,3.47,3.47,0,0,0-.44,2v.65a3.79,3.79,0,0,0,.41,2,1.49,1.49,0,0,0,1.33.64,1.72,1.72,0,0,0,1.21-.38,1.65,1.65,0,0,0,.46-1.15Z"/><path class="cls-2" d="M950,46.27a3,3,0,0,1-1,2.17,3.54,3.54,0,0,1-2.41.79,3.21,3.21,0,0,1-2.58-1.1,4.53,4.53,0,0,1-.94-3v-.52a5,5,0,0,1,.43-2.16A3.2,3.2,0,0,1,944.69,41a3.42,3.42,0,0,1,1.87-.5,3.47,3.47,0,0,1,2.38.79,3.2,3.2,0,0,1,1,2.22h-1.76a1.75,1.75,0,0,0-.46-1.2,1.68,1.68,0,0,0-1.2-.37,1.48,1.48,0,0,0-1.31.63,3.38,3.38,0,0,0-.45,2v.65a3.78,3.78,0,0,0,.42,2,1.48,1.48,0,0,0,1.32.64,1.7,1.7,0,0,0,1.21-.38,1.65,1.65,0,0,0,.46-1.15Z"/><path class="cls-2" d="M956.26,45.42h-3.38V47.7h4v1.41h-5.71V40.58h5.7V42h-4v2h3.38Z"/><path class="cls-2" d="M962.3,46.88a.92.92,0,0,0-.35-.77,4.76,4.76,0,0,0-1.27-.56,9.62,9.62,0,0,1-1.45-.58,2.39,2.39,0,0,1-1.45-2.12,2,2,0,0,1,.39-1.23,2.52,2.52,0,0,1,1.12-.85,4.28,4.28,0,0,1,1.64-.3,3.86,3.86,0,0,1,1.63.33,2.67,2.67,0,0,1,1.11.93,2.47,2.47,0,0,1,.39,1.37H962.3a1.17,1.17,0,0,0-.36-.91,1.52,1.52,0,0,0-1-.32,1.61,1.61,0,0,0-1,.27.86.86,0,0,0-.36.72.81.81,0,0,0,.42.69,4.54,4.54,0,0,0,1.23.53,5.3,5.3,0,0,1,2.19,1.12,2.26,2.26,0,0,1,.68,1.66,2.05,2.05,0,0,1-.84,1.74,3.64,3.64,0,0,1-2.25.63,4.3,4.3,0,0,1-1.79-.36,2.88,2.88,0,0,1-1.24-1,2.52,2.52,0,0,1-.42-1.45h1.76c0,.94.56,1.41,1.69,1.41a1.65,1.65,0,0,0,1-.25A.84.84,0,0,0,962.3,46.88Z"/><path class="cls-2" d="M969.68,46.88a.9.9,0,0,0-.36-.77,4.51,4.51,0,0,0-1.26-.56,9.62,9.62,0,0,1-1.45-.58,2.37,2.37,0,0,1-1.45-2.12,2,2,0,0,1,.39-1.23,2.52,2.52,0,0,1,1.12-.85,4.23,4.23,0,0,1,1.63-.3,3.83,3.83,0,0,1,1.63.33,2.55,2.55,0,0,1,1.11.93,2.4,2.4,0,0,1,.4,1.37h-1.76a1.14,1.14,0,0,0-.37-.91,1.48,1.48,0,0,0-1-.32,1.66,1.66,0,0,0-1,.27.87.87,0,0,0-.35.72.82.82,0,0,0,.41.69,4.62,4.62,0,0,0,1.24.53,5.19,5.19,0,0,1,2.18,1.12,2.23,2.23,0,0,1,.69,1.66,2.05,2.05,0,0,1-.84,1.74,3.66,3.66,0,0,1-2.25.63,4.38,4.38,0,0,1-1.8-.36,2.79,2.79,0,0,1-1.23-1,2.53,2.53,0,0,1-.43-1.45h1.77c0,.94.56,1.41,1.69,1.41a1.62,1.62,0,0,0,1-.25A.83.83,0,0,0,969.68,46.88Z"/><path class="cls-2" d="M973.9,46.5a3.61,3.61,0,0,1,.2-1.31,2.78,2.78,0,0,1,.73-1,4.07,4.07,0,0,0,.71-.76,1.29,1.29,0,0,0,.17-.63c0-.66-.3-1-.91-1a.94.94,0,0,0-.7.27,1,1,0,0,0-.27.73h-1.7a2.28,2.28,0,0,1,.72-1.75,2.86,2.86,0,0,1,1.95-.63,2.8,2.8,0,0,1,1.92.6,2.12,2.12,0,0,1,.69,1.7,2.06,2.06,0,0,1-.22.94,4,4,0,0,1-.78,1l-.48.45a1.7,1.7,0,0,0-.51,1l0,.36Zm-.17,1.8a.86.86,0,0,1,.27-.65.92.92,0,0,1,.68-.25.94.94,0,0,1,.68.25.86.86,0,0,1,.27.65.84.84,0,0,1-.26.63,1,1,0,0,1-.69.25,1,1,0,0,1-.69-.25A.84.84,0,0,1,973.73,48.3Z"/><rect class="cls-1" x="1059.25" y="29" width="103" height="32" rx="3.94"/><path class="cls-2" d="M1085.77,46.11v3H1084V40.58h3.33a3.89,3.89,0,0,1,1.69.35,2.6,2.6,0,0,1,1.12,1,2.76,2.76,0,0,1,.4,1.48,2.45,2.45,0,0,1-.86,2,3.55,3.55,0,0,1-2.38.73Zm0-1.43h1.57a1.56,1.56,0,0,0,1.07-.32,1.21,1.21,0,0,0,.36-.94,1.37,1.37,0,0,0-.37-1,1.32,1.32,0,0,0-1-.4h-1.61Z"/><path class="cls-2" d="M1094.91,46h-1.4v3.12h-1.76V40.58h3.17a3.61,3.61,0,0,1,2.34.68,2.34,2.34,0,0,1,.82,1.9,2.66,2.66,0,0,1-.38,1.46,2.58,2.58,0,0,1-1.15.93L1098.4,49v.08h-1.89Zm-1.4-1.42h1.42a1.46,1.46,0,0,0,1-.34,1.2,1.2,0,0,0,.36-.93,1.33,1.33,0,0,0-.34-.95,1.44,1.44,0,0,0-1.06-.34h-1.41Z"/><path class="cls-2" d="M1101.28,49.11h-1.76V40.58h1.76Z"/><path class="cls-2" d="M1109.85,49.11h-1.76l-3.42-5.61v5.61h-1.76V40.58h1.76l3.43,5.63V40.58h1.75Z"/><path class="cls-2" d="M1117.63,42H1115v7.1h-1.76V42h-2.57V40.58h6.94Z"/><path class="cls-2" d="M1123.14,49.11h-1.76V40.58h1.76Z"/><path class="cls-2" d="M1126.53,47.7h3.73v1.41h-5.49V40.58h1.76Z"/><path class="cls-2" d="M1133,46.11v3h-1.76V40.58h3.33a3.92,3.92,0,0,1,1.69.35,2.66,2.66,0,0,1,1.12,1,2.85,2.85,0,0,1,.39,1.48,2.42,2.42,0,0,1-.86,2,3.52,3.52,0,0,1-2.37.73Zm0-1.43h1.57a1.53,1.53,0,0,0,1.06-.32,1.18,1.18,0,0,0,.37-.94,1.41,1.41,0,0,0-.37-1,1.35,1.35,0,0,0-1-.4H1133Z"/><path class="cls-3" d="M614.08,61v55a4,4,0,0,1-4,4H84.75a4,4,0,0,1-4-4V61.89"/><polygon class="cls-4" points="84.09 64.59 83.5 65.15 80.75 62.2 78.01 65.15 77.41 64.59 80.75 61 84.09 64.59"/><rect class="cls-5" x="341.25" y="111" width="60" height="17"/><path d="M348.91,123.85v-10h4.45a5.86,5.86,0,0,1,2,.27,2.25,2.25,0,0,1,1.12,1,2.83,2.83,0,0,1,.41,1.51,2.5,2.5,0,0,1-.69,1.8,3.46,3.46,0,0,1-2.13.93,3.6,3.6,0,0,1,.8.5,6.78,6.78,0,0,1,1.1,1.33l1.74,2.73h-1.66l-1.33-2.08q-.58-.9-1-1.38a2.79,2.79,0,0,0-.67-.67,2,2,0,0,0-.6-.27,4.23,4.23,0,0,0-.74,0h-1.54v4.45Zm1.33-5.6h2.85a4.41,4.41,0,0,0,1.42-.18,1.55,1.55,0,0,0,.78-.61,1.59,1.59,0,0,0,.27-.9,1.46,1.46,0,0,0-.52-1.16,2.39,2.39,0,0,0-1.63-.46h-3.17Z"/><path d="M363.81,121.51l1.28.16A3.13,3.13,0,0,1,364,123.4a3.76,3.76,0,0,1-4.6-.36,3.87,3.87,0,0,1-.93-2.76,4,4,0,0,1,.94-2.84,3.2,3.2,0,0,1,2.45-1,3.08,3.08,0,0,1,2.37,1,3.92,3.92,0,0,1,.93,2.79c0,.07,0,.18,0,.33h-5.41a2.81,2.81,0,0,0,.67,1.83,2,2,0,0,0,1.52.63,1.88,1.88,0,0,0,1.16-.35A2.33,2.33,0,0,0,363.81,121.51Zm-4-2h4.06a2.46,2.46,0,0,0-.47-1.37,1.89,1.89,0,0,0-1.52-.71,2,2,0,0,0-1.43.57A2.3,2.3,0,0,0,359.77,119.52Z"/><path d="M365.07,126.67l.23-1a2.19,2.19,0,0,0,.58.1.64.64,0,0,0,.56-.25,2.61,2.61,0,0,0,.18-1.25v-7.63h1.23v7.66a3.61,3.61,0,0,1-.34,1.86,1.63,1.63,0,0,1-1.48.69A3.83,3.83,0,0,1,365.07,126.67Zm1.55-11.41v-1.43h1.23v1.43Z"/><path d="M374.48,121.19l1.21.16a3.12,3.12,0,0,1-1,2,3,3,0,0,1-2,.71,3.13,3.13,0,0,1-2.4-1,4,4,0,0,1-.9-2.79,5.08,5.08,0,0,1,.39-2.06,2.68,2.68,0,0,1,1.18-1.32,3.56,3.56,0,0,1,1.73-.44,3,3,0,0,1,1.94.6,2.73,2.73,0,0,1,1,1.7l-1.19.18a2,2,0,0,0-.61-1.1,1.55,1.55,0,0,0-1-.37,1.9,1.9,0,0,0-1.51.67,3.13,3.13,0,0,0-.58,2.11,3.28,3.28,0,0,0,.56,2.12,1.82,1.82,0,0,0,1.46.66,1.69,1.69,0,0,0,1.21-.44A2.2,2.2,0,0,0,374.48,121.19Z"/><path d="M379.43,122.75l.18,1.09a4.85,4.85,0,0,1-.93.11,2.1,2.1,0,0,1-1-.21,1.21,1.21,0,0,1-.52-.56,4.43,4.43,0,0,1-.15-1.45v-4.18h-.91v-1H377v-1.8l1.22-.73v2.53h1.24v1h-1.24v4.24a1.9,1.9,0,0,0,.07.68.49.49,0,0,0,.21.24.82.82,0,0,0,.42.09A4.47,4.47,0,0,0,379.43,122.75Z"/><path d="M385.6,121.51l1.27.16a3.12,3.12,0,0,1-1.11,1.73,3.77,3.77,0,0,1-4.61-.36,3.87,3.87,0,0,1-.93-2.76,4,4,0,0,1,.94-2.84,3.22,3.22,0,0,1,2.45-1,3.1,3.1,0,0,1,2.38,1,3.91,3.91,0,0,1,.92,2.79v.33h-5.42a2.81,2.81,0,0,0,.68,1.83,2,2,0,0,0,1.52.63,1.85,1.85,0,0,0,1.15-.35A2.41,2.41,0,0,0,385.6,121.51Zm-4-2h4.05a2.39,2.39,0,0,0-.46-1.37,1.89,1.89,0,0,0-1.52-.71,2,2,0,0,0-1.43.57A2.21,2.21,0,0,0,381.56,119.52Z"/><path d="M393.13,123.85v-.91a2.26,2.26,0,0,1-2,1.08,2.86,2.86,0,0,1-1.6-.48,3.24,3.24,0,0,1-1.13-1.34,4.71,4.71,0,0,1-.4-2,5,5,0,0,1,.37-2,2.84,2.84,0,0,1,1.08-1.36,3,3,0,0,1,1.62-.47,2.36,2.36,0,0,1,1.17.28,2.44,2.44,0,0,1,.84.72v-3.6h1.22v10Zm-3.89-3.62a3.09,3.09,0,0,0,.59,2.08,1.76,1.76,0,0,0,1.38.69,1.73,1.73,0,0,0,1.37-.66,3,3,0,0,0,.57-2,3.39,3.39,0,0,0-.58-2.19,1.76,1.76,0,0,0-1.41-.69,1.68,1.68,0,0,0-1.37.67A3.27,3.27,0,0,0,389.24,120.23Z"/><rect class="cls-5" x="600.25" y="75" width="28" height="15"/><path class="cls-4" d="M606.68,85.85V78.59h1.11v1a2.61,2.61,0,0,1,2.31-1.19,3.18,3.18,0,0,1,1.21.23,2,2,0,0,1,.82.62,2.4,2.4,0,0,1,.38.91,6.62,6.62,0,0,1,.07,1.2v4.46h-1.23V81.44a3.49,3.49,0,0,0-.14-1.13,1.17,1.17,0,0,0-.51-.59,1.6,1.6,0,0,0-.86-.23,2,2,0,0,0-1.36.5,2.49,2.49,0,0,0-.57,1.9v4Z"/><path class="cls-4" d="M614,82.22a3.75,3.75,0,0,1,1.12-3,3.44,3.44,0,0,1,2.29-.8,3.26,3.26,0,0,1,2.44,1,3.7,3.7,0,0,1,.95,2.71,4.78,4.78,0,0,1-.42,2.2,2.89,2.89,0,0,1-1.22,1.25,3.54,3.54,0,0,1-1.75.45A3.28,3.28,0,0,1,615,85,3.89,3.89,0,0,1,614,82.22Zm1.27,0a3.12,3.12,0,0,0,.6,2.09,2,2,0,0,0,1.54.69,2,2,0,0,0,1.52-.69,3.17,3.17,0,0,0,.61-2.13,3,3,0,0,0-.61-2,2,2,0,0,0-3.06,0A3.09,3.09,0,0,0,615.28,82.22Z"/><path d="M847.64,109.91l.15.93a4,4,0,0,1-.79.09,1.79,1.79,0,0,1-.89-.18,1,1,0,0,1-.45-.48,3.6,3.6,0,0,1-.13-1.24v-3.58h-.77v-.82h.77v-1.54l1.05-.63v2.17h1.06v.82h-1.06v3.64a2.2,2.2,0,0,0,0,.58.46.46,0,0,0,.19.2.69.69,0,0,0,.36.08A3,3,0,0,0,847.64,109.91Z"/><path d="M848.66,110.85v-6.22h1v.94a2.48,2.48,0,0,1,.67-.87,1.16,1.16,0,0,1,.68-.21,2,2,0,0,1,1.08.34l-.36,1a1.46,1.46,0,0,0-.78-.23,1,1,0,0,0-.62.21,1.17,1.17,0,0,0-.39.57,4.06,4.06,0,0,0-.18,1.23v3.26Z"/><path d="M852.62,113.25l-.12-1a2.5,2.5,0,0,0,.61.09,1.13,1.13,0,0,0,.56-.12.89.89,0,0,0,.35-.32,6.77,6.77,0,0,0,.32-.79l.09-.26-2.36-6.23h1.14l1.29,3.6q.25.69.45,1.44a13.56,13.56,0,0,1,.44-1.41l1.33-3.63h1L855.4,111a12.28,12.28,0,0,1-.59,1.41,2,2,0,0,1-.64.76,1.46,1.46,0,0,1-.87.25A2.31,2.31,0,0,1,852.62,113.25Z"/><path d="M866.06,110.08a3.88,3.88,0,0,1-1.13.71,3.36,3.36,0,0,1-1.16.2,2.21,2.21,0,0,1-1.57-.5,1.64,1.64,0,0,1-.56-1.28,1.68,1.68,0,0,1,.21-.83,1.63,1.63,0,0,1,.55-.61,2.65,2.65,0,0,1,.76-.35,8.61,8.61,0,0,1,.93-.15,10.06,10.06,0,0,0,1.88-.37c0-.14,0-.23,0-.27a1.17,1.17,0,0,0-.3-.91,1.76,1.76,0,0,0-1.2-.36,1.9,1.9,0,0,0-1.1.26,1.57,1.57,0,0,0-.52.93l-1-.15a2.41,2.41,0,0,1,.46-1.06,1.88,1.88,0,0,1,.93-.63,4.09,4.09,0,0,1,1.41-.22,3.64,3.64,0,0,1,1.3.19,1.68,1.68,0,0,1,.73.47,1.6,1.6,0,0,1,.33.72,6.67,6.67,0,0,1,0,1v1.4a13.55,13.55,0,0,0,.07,1.86,2.12,2.12,0,0,0,.27.75h-1.11A2.17,2.17,0,0,1,866.06,110.08Zm-.09-2.35a7.43,7.43,0,0,1-1.72.4,3.82,3.82,0,0,0-.92.21.87.87,0,0,0-.41.34.89.89,0,0,0-.15.5.93.93,0,0,0,.32.71,1.4,1.4,0,0,0,.93.28,2.18,2.18,0,0,0,1.09-.27,1.62,1.62,0,0,0,.69-.73,2.44,2.44,0,0,0,.17-1Z"/><path d="M868.48,111.37l1,.15a.93.93,0,0,0,.36.69,1.7,1.7,0,0,0,1.07.29,1.85,1.85,0,0,0,1.13-.29,1.49,1.49,0,0,0,.54-.82,6.7,6.7,0,0,0,.07-1.35,2.16,2.16,0,0,1-1.72.81,2.38,2.38,0,0,1-2-.92,3.63,3.63,0,0,1-.7-2.22,4.22,4.22,0,0,1,.32-1.65,2.59,2.59,0,0,1,.94-1.16,2.56,2.56,0,0,1,1.44-.41,2.23,2.23,0,0,1,1.81.89v-.75h1V110a5.06,5.06,0,0,1-.3,2.06,2.23,2.23,0,0,1-.94,1,3.3,3.3,0,0,1-1.58.35,3,3,0,0,1-1.8-.5A1.73,1.73,0,0,1,868.48,111.37Zm.88-3.74a2.74,2.74,0,0,0,.48,1.79,1.61,1.61,0,0,0,2.44,0,2.61,2.61,0,0,0,.49-1.76,2.54,2.54,0,0,0-.51-1.72,1.57,1.57,0,0,0-1.22-.58,1.51,1.51,0,0,0-1.19.57A2.54,2.54,0,0,0,869.36,107.63Z"/><path d="M879.41,110.08a3.88,3.88,0,0,1-1.13.71,3.41,3.41,0,0,1-1.16.2,2.25,2.25,0,0,1-1.58-.5,1.76,1.76,0,0,1-.34-2.11,1.69,1.69,0,0,1,.54-.61,2.78,2.78,0,0,1,.76-.35,8.89,8.89,0,0,1,.94-.15,10.24,10.24,0,0,0,1.88-.37c0-.14,0-.23,0-.27a1.17,1.17,0,0,0-.3-.91,1.76,1.76,0,0,0-1.2-.36,1.87,1.87,0,0,0-1.1.26,1.57,1.57,0,0,0-.52.93l-1-.15a2.53,2.53,0,0,1,.47-1.06,1.88,1.88,0,0,1,.93-.63,4.05,4.05,0,0,1,1.41-.22,3.68,3.68,0,0,1,1.3.19,1.68,1.68,0,0,1,.73.47,1.84,1.84,0,0,1,.33.72,6.67,6.67,0,0,1,0,1v1.4a13.55,13.55,0,0,0,.07,1.86,2.31,2.31,0,0,0,.26.75h-1.1A2.17,2.17,0,0,1,879.41,110.08Zm-.09-2.35a7.43,7.43,0,0,1-1.72.4,3.82,3.82,0,0,0-.92.21,1,1,0,0,0-.42.34,1,1,0,0,0-.14.5.9.9,0,0,0,.32.71,1.4,1.4,0,0,0,.93.28,2.18,2.18,0,0,0,1.09-.27,1.67,1.67,0,0,0,.69-.73,2.44,2.44,0,0,0,.17-1Z"/><path d="M882,103.48v-1.22h1.05v1.22Zm0,7.37v-6.22h1.05v6.22Z"/><path d="M884.69,110.85v-6.22h.95v.88a2.25,2.25,0,0,1,2-1,2.66,2.66,0,0,1,1,.2,1.66,1.66,0,0,1,.71.53,2,2,0,0,1,.33.78,6,6,0,0,1,.06,1v3.82h-1.06v-3.78a3,3,0,0,0-.12-1,1,1,0,0,0-.44-.51,1.44,1.44,0,0,0-.73-.19,1.76,1.76,0,0,0-1.17.43,2.14,2.14,0,0,0-.49,1.62v3.4Z"/><path d="M350.35,142.38a10.72,10.72,0,0,1-1.47-2.58,7.88,7.88,0,0,1-.61-3.06,8,8,0,0,1,.45-2.67,11.57,11.57,0,0,1,1.63-2.95h.76c-.47.81-.79,1.39-.94,1.74a9.57,9.57,0,0,0-.81,3.89,10.56,10.56,0,0,0,1.75,5.63Z"/><path d="M352.08,137.09l1.07-.09a2.33,2.33,0,0,0,.36,1.06,1.92,1.92,0,0,0,.86.66,3.27,3.27,0,0,0,1.32.26,3.38,3.38,0,0,0,1.15-.19,1.63,1.63,0,0,0,.74-.53,1.26,1.26,0,0,0,.24-.74,1.12,1.12,0,0,0-.23-.71,1.69,1.69,0,0,0-.77-.5,15,15,0,0,0-1.53-.42,7.56,7.56,0,0,1-1.66-.54,2.28,2.28,0,0,1-.92-.8,2,2,0,0,1-.3-1.07,2.13,2.13,0,0,1,.37-1.21,2.18,2.18,0,0,1,1.08-.86,4,4,0,0,1,1.57-.29,4.43,4.43,0,0,1,1.69.3,2.48,2.48,0,0,1,1.12.91,2.62,2.62,0,0,1,.42,1.35l-1.09.08a1.8,1.8,0,0,0-.59-1.23,2.37,2.37,0,0,0-1.5-.41,2.33,2.33,0,0,0-1.5.38,1.11,1.11,0,0,0-.47.91,1,1,0,0,0,.33.76,4.55,4.55,0,0,0,1.71.61,10.72,10.72,0,0,1,1.9.55,2.64,2.64,0,0,1,1.11.87,2.17,2.17,0,0,1,.36,1.23,2.37,2.37,0,0,1-.39,1.29,2.57,2.57,0,0,1-1.13.94,3.85,3.85,0,0,1-1.66.34,4.87,4.87,0,0,1-1.95-.34,2.78,2.78,0,0,1-1.24-1A2.94,2.94,0,0,1,352.08,137.09Z"/><path d="M360.44,139.85v-8.59h1.71l2,6.08c.19.57.33,1,.41,1.28.1-.32.25-.78.46-1.38l2.05-6h1.53v8.59h-1.09v-7.19l-2.5,7.19h-1l-2.49-7.31v7.31Z"/><path d="M370.08,137.09l1.07-.09a2.33,2.33,0,0,0,.36,1.06,1.92,1.92,0,0,0,.86.66,3.27,3.27,0,0,0,1.32.26,3.38,3.38,0,0,0,1.15-.19,1.63,1.63,0,0,0,.74-.53,1.26,1.26,0,0,0,.24-.74,1.12,1.12,0,0,0-.23-.71,1.69,1.69,0,0,0-.77-.5,15,15,0,0,0-1.53-.42,7.56,7.56,0,0,1-1.66-.54,2.28,2.28,0,0,1-.92-.8,2,2,0,0,1-.3-1.07,2.13,2.13,0,0,1,.37-1.21,2.18,2.18,0,0,1,1.08-.86,4,4,0,0,1,1.57-.29,4.43,4.43,0,0,1,1.69.3,2.48,2.48,0,0,1,1.12.91,2.62,2.62,0,0,1,.42,1.35l-1.09.08a1.8,1.8,0,0,0-.59-1.23,2.37,2.37,0,0,0-1.5-.41,2.33,2.33,0,0,0-1.5.38,1.11,1.11,0,0,0-.47.91,1,1,0,0,0,.33.76,4.55,4.55,0,0,0,1.71.61,10.72,10.72,0,0,1,1.9.55,2.64,2.64,0,0,1,1.11.87,2.17,2.17,0,0,1,.36,1.23,2.37,2.37,0,0,1-.39,1.29,2.57,2.57,0,0,1-1.13.94,3.85,3.85,0,0,1-1.66.34,4.87,4.87,0,0,1-1.95-.34,2.78,2.78,0,0,1-1.24-1A2.94,2.94,0,0,1,370.08,137.09Z"/><path d="M377.55,140l2.49-8.88h.84L378.4,140Z"/><path d="M381.83,139.85v-8.59H388v1H383v2.63h4.75v1H383v2.93h5.27v1Z"/><path d="M389.68,139.85v-6.22h.94v.87a2.21,2.21,0,0,1,1.89-1,2,2,0,0,1,1.13.29,1.51,1.51,0,0,1,.62.8,2.25,2.25,0,0,1,1.93-1.09,1.9,1.9,0,0,1,1.42.51,2.2,2.2,0,0,1,.5,1.58v4.27h-1.05v-3.92a3.2,3.2,0,0,0-.1-.91,1,1,0,0,0-.38-.45,1.19,1.19,0,0,0-.63-.17,1.48,1.48,0,0,0-1.09.44,1.92,1.92,0,0,0-.43,1.4v3.61h-1.06v-4a1.75,1.75,0,0,0-.26-1.06,1,1,0,0,0-.84-.35,1.48,1.48,0,0,0-.82.24,1.29,1.29,0,0,0-.55.68,4,4,0,0,0-.17,1.3v3.23Z"/><path d="M403.73,139.08a3.75,3.75,0,0,1-1.13.71,3.41,3.41,0,0,1-1.16.2,2.25,2.25,0,0,1-1.58-.5,1.76,1.76,0,0,1-.34-2.11,1.63,1.63,0,0,1,.55-.61,2.53,2.53,0,0,1,.76-.35,8.61,8.61,0,0,1,.93-.15,10.24,10.24,0,0,0,1.88-.37c0-.14,0-.23,0-.27a1.17,1.17,0,0,0-.3-.91,1.76,1.76,0,0,0-1.2-.36,1.9,1.9,0,0,0-1.1.26,1.57,1.57,0,0,0-.52.93l-1-.15a2.41,2.41,0,0,1,.46-1.06,1.88,1.88,0,0,1,.93-.63,4.09,4.09,0,0,1,1.41-.22,3.64,3.64,0,0,1,1.3.19,1.68,1.68,0,0,1,.73.47,1.6,1.6,0,0,1,.33.72,6.67,6.67,0,0,1,0,1v1.4a13.55,13.55,0,0,0,.07,1.86,2.31,2.31,0,0,0,.26.75h-1.1A2.17,2.17,0,0,1,403.73,139.08Zm-.09-2.35a7.43,7.43,0,0,1-1.72.4,3.82,3.82,0,0,0-.92.21.87.87,0,0,0-.41.34.89.89,0,0,0-.15.5.93.93,0,0,0,.32.71,1.4,1.4,0,0,0,.93.28,2.18,2.18,0,0,0,1.09-.27,1.62,1.62,0,0,0,.69-.73,2.44,2.44,0,0,0,.17-1Z"/><path d="M406.35,132.48v-1.22h1.06v1.22Zm0,7.37v-6.22h1.06v6.22Z"/><path d="M409,139.85v-8.59H410v8.59Z"/><path d="M419.07,139.08a3.75,3.75,0,0,1-1.13.71,3.41,3.41,0,0,1-1.16.2,2.25,2.25,0,0,1-1.58-.5,1.76,1.76,0,0,1-.34-2.11,1.63,1.63,0,0,1,.55-.61,2.53,2.53,0,0,1,.76-.35,8.61,8.61,0,0,1,.93-.15,10.24,10.24,0,0,0,1.88-.37c0-.14,0-.23,0-.27a1.17,1.17,0,0,0-.3-.91,1.76,1.76,0,0,0-1.2-.36,1.9,1.9,0,0,0-1.1.26,1.57,1.57,0,0,0-.52.93l-1-.15a2.41,2.41,0,0,1,.46-1.06,1.88,1.88,0,0,1,.93-.63,4.09,4.09,0,0,1,1.41-.22,3.68,3.68,0,0,1,1.3.19,1.68,1.68,0,0,1,.73.47,1.6,1.6,0,0,1,.33.72,6.67,6.67,0,0,1,.05,1v1.4a13.55,13.55,0,0,0,.07,1.86,2.31,2.31,0,0,0,.26.75h-1.1A2.17,2.17,0,0,1,419.07,139.08Zm-.09-2.35a7.43,7.43,0,0,1-1.72.4,3.82,3.82,0,0,0-.92.21.87.87,0,0,0-.41.34.89.89,0,0,0-.15.5.93.93,0,0,0,.32.71,1.4,1.4,0,0,0,.93.28,2.18,2.18,0,0,0,1.09-.27,1.62,1.62,0,0,0,.69-.73,2.44,2.44,0,0,0,.17-1Z"/><path d="M421.66,139.85v-8.59h1.06v8.59Z"/><path d="M428.61,137.85l1.09.13a2.71,2.71,0,0,1-.95,1.49A2.9,2.9,0,0,1,427,140a2.83,2.83,0,0,1-2.16-.84,3.29,3.29,0,0,1-.8-2.36,3.41,3.41,0,0,1,.81-2.43,2.74,2.74,0,0,1,2.1-.87,2.62,2.62,0,0,1,2,.85,3.35,3.35,0,0,1,.8,2.39c0,.06,0,.16,0,.28h-4.64a2.38,2.38,0,0,0,.58,1.57,1.74,1.74,0,0,0,1.3.55,1.62,1.62,0,0,0,1-.31A2,2,0,0,0,428.61,137.85Zm-3.46-1.71h3.47a2,2,0,0,0-.4-1.17,1.59,1.59,0,0,0-1.3-.61,1.67,1.67,0,0,0-1.22.48A1.92,1.92,0,0,0,425.15,136.14Z"/><path d="M431,139.85v-6.22H432v.94a2.6,2.6,0,0,1,.67-.87,1.19,1.19,0,0,1,.68-.21,2,2,0,0,1,1.08.34l-.36,1a1.43,1.43,0,0,0-.77-.23,1,1,0,0,0-.62.21,1.12,1.12,0,0,0-.4.57,4.4,4.4,0,0,0-.17,1.23v3.26Z"/><path d="M437.32,138.91l.16.93a4.16,4.16,0,0,1-.8.09,1.82,1.82,0,0,1-.89-.18,1,1,0,0,1-.45-.48,3.88,3.88,0,0,1-.13-1.24v-3.58h-.77v-.82h.77v-1.54l1.05-.63v2.17h1.06v.82h-1.06v3.64a1.73,1.73,0,0,0,.06.58.49.49,0,0,0,.18.2.69.69,0,0,0,.36.08A3,3,0,0,0,437.32,138.91Z"/><path d="M439.05,142.38h-.76a10.56,10.56,0,0,0,1.75-5.63,9.49,9.49,0,0,0-.25-2.19,9.05,9.05,0,0,0-.56-1.69,18.38,18.38,0,0,0-.94-1.75h.76a11.57,11.57,0,0,1,1.63,2.95,8,8,0,0,1,.45,2.67,8.07,8.07,0,0,1-.61,3.06A11.07,11.07,0,0,1,439.05,142.38Z"/><path d="M690.35,103.38a10.72,10.72,0,0,1-1.47-2.58,7.88,7.88,0,0,1-.61-3.06,8,8,0,0,1,.45-2.67,11.57,11.57,0,0,1,1.63-2.95h.76c-.47.81-.79,1.39-.94,1.74a9.57,9.57,0,0,0-.81,3.89,10.56,10.56,0,0,0,1.75,5.63Z"/><path d="M692.08,98.09l1.07-.09a2.46,2.46,0,0,0,.36,1.06,1.92,1.92,0,0,0,.86.66,3.27,3.27,0,0,0,1.32.26,3.34,3.34,0,0,0,1.15-.19,1.63,1.63,0,0,0,.74-.53,1.26,1.26,0,0,0,.24-.74,1.12,1.12,0,0,0-.23-.71,1.69,1.69,0,0,0-.77-.5,15,15,0,0,0-1.53-.42,7.76,7.76,0,0,1-1.66-.54,2.28,2.28,0,0,1-.92-.8,2,2,0,0,1-.3-1.07,2.13,2.13,0,0,1,.37-1.21,2.23,2.23,0,0,1,1.08-.86,4,4,0,0,1,1.57-.29,4.43,4.43,0,0,1,1.69.3,2.48,2.48,0,0,1,1.12.91,2.62,2.62,0,0,1,.42,1.35l-1.09.08a1.8,1.8,0,0,0-.59-1.23,2.37,2.37,0,0,0-1.5-.41,2.33,2.33,0,0,0-1.5.38,1.11,1.11,0,0,0-.47.91,1,1,0,0,0,.33.76,4.55,4.55,0,0,0,1.71.61,11.19,11.19,0,0,1,1.91.55,2.6,2.6,0,0,1,1.1.87,2.17,2.17,0,0,1,.36,1.23,2.37,2.37,0,0,1-.39,1.29,2.57,2.57,0,0,1-1.13.94,3.85,3.85,0,0,1-1.66.34,4.87,4.87,0,0,1-2-.34,2.78,2.78,0,0,1-1.24-1A2.94,2.94,0,0,1,692.08,98.09Z"/><path d="M700.44,100.85V92.26h1.71l2,6.08c.19.57.33,1,.41,1.28.1-.32.25-.78.46-1.38l2.06-6h1.52v8.59h-1.09V93.66l-2.5,7.19h-1l-2.49-7.31v7.31Z"/><path d="M710.08,98.09l1.07-.09a2.46,2.46,0,0,0,.36,1.06,1.92,1.92,0,0,0,.86.66,3.27,3.27,0,0,0,1.32.26,3.34,3.34,0,0,0,1.15-.19,1.63,1.63,0,0,0,.74-.53,1.26,1.26,0,0,0,.24-.74,1.12,1.12,0,0,0-.23-.71,1.69,1.69,0,0,0-.77-.5,15,15,0,0,0-1.53-.42,7.76,7.76,0,0,1-1.66-.54,2.28,2.28,0,0,1-.92-.8,2,2,0,0,1-.3-1.07,2.13,2.13,0,0,1,.37-1.21,2.23,2.23,0,0,1,1.08-.86,4,4,0,0,1,1.57-.29,4.43,4.43,0,0,1,1.69.3,2.48,2.48,0,0,1,1.12.91,2.62,2.62,0,0,1,.42,1.35l-1.09.08a1.8,1.8,0,0,0-.59-1.23,2.37,2.37,0,0,0-1.5-.41,2.33,2.33,0,0,0-1.5.38,1.11,1.11,0,0,0-.47.91,1,1,0,0,0,.33.76,4.55,4.55,0,0,0,1.71.61,11.19,11.19,0,0,1,1.91.55,2.6,2.6,0,0,1,1.1.87,2.17,2.17,0,0,1,.36,1.23,2.37,2.37,0,0,1-.39,1.29,2.57,2.57,0,0,1-1.13.94,3.85,3.85,0,0,1-1.66.34,4.87,4.87,0,0,1-2-.34,2.78,2.78,0,0,1-1.24-1A2.94,2.94,0,0,1,710.08,98.09Z"/><path d="M717.55,101,720,92.12h.84L718.4,101Z"/><path d="M688.5,115.25v-8.59h6.21v1h-5.08v2.63h4.75v1h-4.75v2.93h5.28v1Z"/><path d="M696.34,115.25V109h.95v.87a2.16,2.16,0,0,1,.77-.73,2.18,2.18,0,0,1,1.11-.28,2,2,0,0,1,1.13.29,1.48,1.48,0,0,1,.63.8,2.22,2.22,0,0,1,1.92-1.09,1.92,1.92,0,0,1,1.43.51,2.2,2.2,0,0,1,.49,1.58v4.27h-1v-3.92a2.87,2.87,0,0,0-.1-.91.94.94,0,0,0-.37-.45,1.19,1.19,0,0,0-.63-.17,1.48,1.48,0,0,0-1.09.44,1.93,1.93,0,0,0-.44,1.4v3.61H700v-4a1.82,1.82,0,0,0-.26-1.06,1,1,0,0,0-.84-.35,1.54,1.54,0,0,0-.83.24,1.28,1.28,0,0,0-.54.68,3.71,3.71,0,0,0-.17,1.3v3.23Z"/><path d="M710.4,114.48a3.88,3.88,0,0,1-1.13.71,3.41,3.41,0,0,1-1.16.2,2.24,2.24,0,0,1-1.58-.5,1.64,1.64,0,0,1-.55-1.28,1.77,1.77,0,0,1,.75-1.44,2.78,2.78,0,0,1,.76-.35,8.89,8.89,0,0,1,.94-.15,10.24,10.24,0,0,0,1.88-.37c0-.14,0-.23,0-.27a1.16,1.16,0,0,0-.3-.91,1.76,1.76,0,0,0-1.2-.36,1.87,1.87,0,0,0-1.1.26,1.63,1.63,0,0,0-.53.93l-1-.15a2.53,2.53,0,0,1,.47-1.06,1.88,1.88,0,0,1,.93-.63,4,4,0,0,1,1.41-.22,3.58,3.58,0,0,1,1.29.19,1.66,1.66,0,0,1,.74.47,1.7,1.7,0,0,1,.32.72,5.19,5.19,0,0,1,.06,1v1.4a16.5,16.5,0,0,0,.06,1.86,2.6,2.6,0,0,0,.27.75h-1.1A2.17,2.17,0,0,1,710.4,114.48Zm-.09-2.35a7.56,7.56,0,0,1-1.72.4,3.7,3.7,0,0,0-.92.21,1,1,0,0,0-.42.34.88.88,0,0,0-.14.5.92.92,0,0,0,.31.71,1.44,1.44,0,0,0,.94.28,2.11,2.11,0,0,0,1.08-.27,1.64,1.64,0,0,0,.7-.73,2.6,2.6,0,0,0,.17-1Z"/><path d="M713,107.88v-1.22h1.05v1.22Zm0,7.37V109h1.05v6.22Z"/><path d="M715.65,115.25v-8.59h1.06v8.59Z"/><path d="M725.74,114.48a3.88,3.88,0,0,1-1.13.71,3.41,3.41,0,0,1-1.16.2,2.24,2.24,0,0,1-1.58-.5,1.64,1.64,0,0,1-.55-1.28,1.77,1.77,0,0,1,.75-1.44,2.78,2.78,0,0,1,.76-.35,8.89,8.89,0,0,1,.94-.15,10.24,10.24,0,0,0,1.88-.37c0-.14,0-.23,0-.27a1.16,1.16,0,0,0-.3-.91,1.76,1.76,0,0,0-1.2-.36,1.87,1.87,0,0,0-1.1.26,1.63,1.63,0,0,0-.53.93l-1-.15a2.66,2.66,0,0,1,.46-1.06,2,2,0,0,1,.94-.63,4,4,0,0,1,1.41-.22,3.58,3.58,0,0,1,1.29.19,1.66,1.66,0,0,1,.74.47,1.7,1.7,0,0,1,.32.72,5.19,5.19,0,0,1,.06,1v1.4a16.5,16.5,0,0,0,.06,1.86,2.6,2.6,0,0,0,.27.75H726A2.17,2.17,0,0,1,725.74,114.48Zm-.09-2.35a7.56,7.56,0,0,1-1.72.4,3.7,3.7,0,0,0-.92.21,1,1,0,0,0-.42.34.88.88,0,0,0-.14.5.92.92,0,0,0,.31.71,1.44,1.44,0,0,0,.94.28,2.11,2.11,0,0,0,1.08-.27,1.64,1.64,0,0,0,.7-.73,2.6,2.6,0,0,0,.17-1Z"/><path d="M728.33,115.25v-8.59h1v8.59Z"/><path d="M735.28,113.25l1.09.13a2.67,2.67,0,0,1-1,1.49,3.26,3.26,0,0,1-3.95-.32,3.29,3.29,0,0,1-.79-2.36,3.46,3.46,0,0,1,.8-2.43,2.74,2.74,0,0,1,2.1-.87,2.66,2.66,0,0,1,2,.85,3.35,3.35,0,0,1,.79,2.39v.28h-4.64a2.33,2.33,0,0,0,.58,1.57,1.73,1.73,0,0,0,1.3.55,1.67,1.67,0,0,0,1-.31A2,2,0,0,0,735.28,113.25Zm-3.47-1.71h3.48a2.1,2.1,0,0,0-.4-1.17,1.61,1.61,0,0,0-1.31-.61,1.69,1.69,0,0,0-1.22.48A2,2,0,0,0,731.81,111.54Z"/><path d="M737.68,115.25V109h1V110a2.48,2.48,0,0,1,.67-.87,1.16,1.16,0,0,1,.68-.21,2,2,0,0,1,1.08.34l-.36,1a1.46,1.46,0,0,0-.78-.23,1,1,0,0,0-.62.21,1.17,1.17,0,0,0-.39.57,4.06,4.06,0,0,0-.18,1.23v3.26Z"/><path d="M744,114.31l.15.93a4,4,0,0,1-.79.09,1.79,1.79,0,0,1-.89-.18,1,1,0,0,1-.45-.48,3.6,3.6,0,0,1-.13-1.24v-3.58h-.77V109h.77v-1.54l1-.63V109H744v.82h-1.06v3.64a2.2,2.2,0,0,0,.05.58.46.46,0,0,0,.19.2.69.69,0,0,0,.36.08A3,3,0,0,0,744,114.31Z"/><path d="M745.71,117.78H745a10.56,10.56,0,0,0,1.75-5.63,9.49,9.49,0,0,0-.25-2.19,9.85,9.85,0,0,0-.56-1.69c-.15-.35-.47-.93-.94-1.75h.75a11,11,0,0,1,1.63,3,8,8,0,0,1,.45,2.67,8.06,8.06,0,0,1-.6,3.06A11.09,11.09,0,0,1,745.71,117.78Z"/><path class="cls-3" d="M948.61,61v55a4,4,0,0,1-4,4H784.25a4,4,0,0,1-4-4V79.89"/><polygon class="cls-4" points="783.59 82.59 783 83.15 780.25 80.2 777.51 83.15 776.91 82.59 780.25 79 783.59 82.59"/><line class="cls-6" x1="161.25" y1="45" x2="213.92" y2="45"/><polygon class="cls-7" points="211.21 48.34 210.65 47.74 213.6 45 210.65 42.26 211.21 41.66 214.81 45 211.21 48.34"/><line class="cls-6" x1="342.25" y1="45" x2="384.36" y2="45"/><polygon class="cls-7" points="381.65 48.34 381.1 47.74 384.05 45 381.1 42.26 381.65 41.66 385.25 45 381.65 48.34"/><line class="cls-6" x1="515.25" y1="45.5" x2="557.36" y2="45.5"/><polygon class="cls-7" points="554.65 48.84 554.1 48.24 557.05 45.5 554.1 42.76 554.65 42.16 558.25 45.5 554.65 48.84"/><line class="cls-8" x1="669.25" y1="46" x2="721.36" y2="46"/><polygon class="cls-9" points="718.65 49.34 718.1 48.74 721.05 46 718.1 43.26 718.65 42.66 722.25 46 718.65 49.34"/><rect class="cls-5" x="679.25" y="38" width="28" height="15"/><line class="cls-6" x1="838.25" y1="46.5" x2="890.36" y2="46.5"/><polygon class="cls-7" points="887.65 49.84 887.1 49.24 890.05 46.5 887.1 43.76 887.65 43.16 891.25 46.5 887.65 49.84"/><path class="cls-9" d="M683.52,51.65l-.14-1.16a2.51,2.51,0,0,0,.71.11,1.41,1.41,0,0,0,.66-.13,1.24,1.24,0,0,0,.4-.39,5.69,5.69,0,0,0,.37-.91c0-.07.06-.17.11-.3l-2.75-7.28h1.33l1.51,4.21c.19.53.37,1.09.52,1.68a15.2,15.2,0,0,1,.51-1.66l1.55-4.23h1.23L686.77,49a16.53,16.53,0,0,1-.69,1.64,2.35,2.35,0,0,1-.75.89,1.8,1.8,0,0,1-1,.29A2.48,2.48,0,0,1,683.52,51.65Z"/><path class="cls-9" d="M695.55,46.51l1.27.16a3.08,3.08,0,0,1-1.12,1.73,3.76,3.76,0,0,1-4.6-.36,3.87,3.87,0,0,1-.93-2.76,4,4,0,0,1,.94-2.84,3.2,3.2,0,0,1,2.45-1,3.12,3.12,0,0,1,2.38,1,4,4,0,0,1,.92,2.79c0,.07,0,.18,0,.33h-5.41a2.81,2.81,0,0,0,.67,1.83,2,2,0,0,0,1.52.63,1.88,1.88,0,0,0,1.16-.35A2.41,2.41,0,0,0,695.55,46.51Zm-4-2h4a2.46,2.46,0,0,0-.47-1.37,1.88,1.88,0,0,0-1.52-.71,2,2,0,0,0-1.43.57A2.25,2.25,0,0,0,691.51,44.52Z"/><path class="cls-9" d="M697.87,46.69l1.22-.2a1.71,1.71,0,0,0,.57,1.12A2,2,0,0,0,701,48a1.9,1.9,0,0,0,1.25-.34,1,1,0,0,0,.41-.81.75.75,0,0,0-.36-.66,5.06,5.06,0,0,0-1.26-.41,11.12,11.12,0,0,1-1.87-.6,1.73,1.73,0,0,1-.79-.69,1.79,1.79,0,0,1-.27-1,1.87,1.87,0,0,1,.22-.9,2.2,2.2,0,0,1,.6-.69,2.33,2.33,0,0,1,.79-.35,3.62,3.62,0,0,1,1.06-.15,4.29,4.29,0,0,1,1.5.24,2.05,2.05,0,0,1,1,.67,2.6,2.6,0,0,1,.43,1.13l-1.21.16a1.32,1.32,0,0,0-.47-.88,1.73,1.73,0,0,0-1.11-.31,2,2,0,0,0-1.21.28.81.81,0,0,0-.37.66.64.64,0,0,0,.16.43,1.09,1.09,0,0,0,.47.33c.12,0,.48.15,1.08.31a14.15,14.15,0,0,1,1.82.57,1.72,1.72,0,0,1,1.11,1.7,2.06,2.06,0,0,1-.36,1.16,2.31,2.31,0,0,1-1,.84A3.73,3.73,0,0,1,701,49a3.4,3.4,0,0,1-2.15-.59A2.71,2.71,0,0,1,697.87,46.69Z"/><line class="cls-8" x1="1006.25" y1="47" x2="1058.36" y2="47"/><polygon class="cls-9" points="1055.65 50.34 1055.1 49.74 1058.05 47 1055.1 44.26 1055.65 43.66 1059.25 47 1055.65 50.34"/><rect class="cls-5" x="936.25" y="77" width="28" height="15"/><path class="cls-4" d="M942.68,87.85V80.59h1.11v1a2.61,2.61,0,0,1,2.31-1.19,3.18,3.18,0,0,1,1.21.23,2,2,0,0,1,.82.62,2.4,2.4,0,0,1,.38.91,6.62,6.62,0,0,1,.07,1.2v4.46h-1.23V83.44a3.49,3.49,0,0,0-.14-1.13,1.17,1.17,0,0,0-.51-.59,1.6,1.6,0,0,0-.86-.23,2,2,0,0,0-1.36.5,2.49,2.49,0,0,0-.57,1.9v4Z"/><path class="cls-4" d="M950,84.22a3.75,3.75,0,0,1,1.12-3,3.44,3.44,0,0,1,2.29-.8,3.26,3.26,0,0,1,2.44,1,3.7,3.7,0,0,1,.95,2.71,4.78,4.78,0,0,1-.42,2.2,2.89,2.89,0,0,1-1.22,1.25,3.54,3.54,0,0,1-1.75.45A3.28,3.28,0,0,1,951,87,3.89,3.89,0,0,1,950,84.22Zm1.27,0a3.12,3.12,0,0,0,.6,2.09,2,2,0,0,0,1.54.69,2,2,0,0,0,1.52-.69,3.17,3.17,0,0,0,.61-2.13,3,3,0,0,0-.61-2,2,2,0,0,0-3.06,0A3.09,3.09,0,0,0,951.28,84.22Z"/><rect class="cls-5" x="1014.25" y="40" width="28" height="15"/><path class="cls-9" d="M1018.52,53.65l-.14-1.16a2.51,2.51,0,0,0,.71.11,1.41,1.41,0,0,0,.66-.13,1.24,1.24,0,0,0,.4-.39,5.69,5.69,0,0,0,.37-.91c0-.07.06-.17.11-.3l-2.75-7.28h1.33l1.51,4.21c.19.53.37,1.09.52,1.68a15.2,15.2,0,0,1,.51-1.66l1.55-4.23h1.23L1021.77,51a16.53,16.53,0,0,1-.69,1.64,2.35,2.35,0,0,1-.75.89,1.8,1.8,0,0,1-1,.29A2.48,2.48,0,0,1,1018.52,53.65Z"/><path class="cls-9" d="M1030.55,48.51l1.27.16a3.08,3.08,0,0,1-1.12,1.73,3.76,3.76,0,0,1-4.6-.36,3.87,3.87,0,0,1-.93-2.76,4,4,0,0,1,.94-2.84,3.2,3.2,0,0,1,2.45-1,3.12,3.12,0,0,1,2.38,1,4,4,0,0,1,.92,2.79c0,.07,0,.18,0,.33h-5.41a2.81,2.81,0,0,0,.67,1.83,2,2,0,0,0,1.52.63,1.88,1.88,0,0,0,1.16-.35A2.41,2.41,0,0,0,1030.55,48.51Zm-4-2h4a2.46,2.46,0,0,0-.47-1.37,1.88,1.88,0,0,0-1.52-.71,2,2,0,0,0-1.43.57A2.25,2.25,0,0,0,1026.51,46.52Z"/><path class="cls-9" d="M1032.87,48.69l1.22-.2a1.71,1.71,0,0,0,.57,1.12A2,2,0,0,0,1036,50a1.9,1.9,0,0,0,1.25-.34,1,1,0,0,0,.41-.81.75.75,0,0,0-.36-.66,5.06,5.06,0,0,0-1.26-.41,11.12,11.12,0,0,1-1.87-.6,1.73,1.73,0,0,1-.79-.69,1.79,1.79,0,0,1-.27-1,1.87,1.87,0,0,1,.22-.9,2.2,2.2,0,0,1,.6-.69,2.33,2.33,0,0,1,.79-.35,3.62,3.62,0,0,1,1.06-.15,4.29,4.29,0,0,1,1.5.24,2.05,2.05,0,0,1,1,.67,2.6,2.6,0,0,1,.43,1.13l-1.21.16a1.32,1.32,0,0,0-.47-.88,1.73,1.73,0,0,0-1.11-.31,2,2,0,0,0-1.21.28.81.81,0,0,0-.37.66.64.64,0,0,0,.16.43,1.09,1.09,0,0,0,.47.33c.12,0,.48.15,1.08.31a14.15,14.15,0,0,1,1.82.57,1.72,1.72,0,0,1,1.11,1.7,2.06,2.06,0,0,1-.36,1.16,2.31,2.31,0,0,1-1,.84,3.73,3.73,0,0,1-1.53.3,3.4,3.4,0,0,1-2.15-.59A2.71,2.71,0,0,1,1032.87,48.69Z"/><line class="cls-10" x1="690.25" y1="56" x2="690.25" y2="58.5"/><line class="cls-11" x1="690.25" y1="63.2" x2="690.25" y2="79.65"/><line class="cls-10" x1="690.25" y1="82" x2="690.25" y2="84.5"/><path class="cls-3" d="M614.25,101.33H454.75a4,4,0,0,1-4-4V80.39"/><polygon class="cls-4" points="453.82 82.88 453.27 83.39 450.75 80.68 448.23 83.39 447.68 82.88 450.75 79.58 453.82 82.88"/><rect class="cls-5" x="501.25" y="92" width="64" height="17"/><path d="M504.68,103.85v-10h4.44a6,6,0,0,1,2,.27,2.23,2.23,0,0,1,1.11,1,2.84,2.84,0,0,1,.42,1.51,2.5,2.5,0,0,1-.69,1.8,3.46,3.46,0,0,1-2.13.93,3.85,3.85,0,0,1,.8.5,7.56,7.56,0,0,1,1.1,1.33l1.74,2.73h-1.67l-1.32-2.08q-.58-.9-1-1.38a3,3,0,0,0-.67-.67,1.93,1.93,0,0,0-.61-.27,4.14,4.14,0,0,0-.74,0H506v4.45Zm1.32-5.6h2.85a4.48,4.48,0,0,0,1.43-.18,1.55,1.55,0,0,0,.78-.61,1.66,1.66,0,0,0,.26-.9,1.48,1.48,0,0,0-.51-1.16,2.4,2.4,0,0,0-1.63-.46H506Z"/><path d="M519.58,101.51l1.27.16a3.12,3.12,0,0,1-1.11,1.73,3.77,3.77,0,0,1-4.61-.36,3.87,3.87,0,0,1-.93-2.76,4,4,0,0,1,.94-2.84,3.22,3.22,0,0,1,2.45-1,3.12,3.12,0,0,1,2.38,1,3.91,3.91,0,0,1,.92,2.79v.33h-5.42a2.81,2.81,0,0,0,.68,1.83,2,2,0,0,0,1.52.63,1.85,1.85,0,0,0,1.15-.35A2.41,2.41,0,0,0,519.58,101.51Zm-4-2h4.05a2.46,2.46,0,0,0-.46-1.37,1.9,1.9,0,0,0-1.53-.71,1.94,1.94,0,0,0-1.42.57A2.21,2.21,0,0,0,515.54,99.52Z"/><path d="M527.15,103.85v-1.06a2.65,2.65,0,0,1-2.3,1.23,3,3,0,0,1-1.2-.25,2,2,0,0,1-.83-.62,2.43,2.43,0,0,1-.38-.91,6.41,6.41,0,0,1-.07-1.15v-4.5h1.23v4a7.13,7.13,0,0,0,.08,1.3,1.24,1.24,0,0,0,.49.76,1.55,1.55,0,0,0,.93.28,2,2,0,0,0,1-.29,1.54,1.54,0,0,0,.68-.77,3.79,3.79,0,0,0,.2-1.42V96.59h1.24v7.26Z"/><path d="M530.18,106.63v-10h1.12v1a2.8,2.8,0,0,1,.9-.83,2.41,2.41,0,0,1,1.21-.28,2.85,2.85,0,0,1,1.64.48,3,3,0,0,1,1.07,1.35,4.75,4.75,0,0,1,.37,1.91,4.92,4.92,0,0,1-.4,2,3,3,0,0,1-1.17,1.37,2.93,2.93,0,0,1-1.6.48,2.32,2.32,0,0,1-1.1-.26,2.66,2.66,0,0,1-.81-.66v3.53Zm1.12-6.37a3.18,3.18,0,0,0,.56,2.07,1.74,1.74,0,0,0,1.38.67,1.77,1.77,0,0,0,1.4-.69,3.29,3.29,0,0,0,.59-2.15,3.23,3.23,0,0,0-.57-2.08,1.73,1.73,0,0,0-1.37-.69,1.79,1.79,0,0,0-1.39.74A3.3,3.3,0,0,0,531.3,100.26Z"/><path d="M537.94,103.85v-10h1.23v10Z"/><path d="M540.62,100.22a3.78,3.78,0,0,1,1.12-3,3.44,3.44,0,0,1,2.29-.8,3.26,3.26,0,0,1,2.44,1,3.7,3.7,0,0,1,.95,2.71,4.78,4.78,0,0,1-.42,2.2,2.94,2.94,0,0,1-1.22,1.25A3.54,3.54,0,0,1,544,104a3.28,3.28,0,0,1-2.47-1A3.93,3.93,0,0,1,540.62,100.22Zm1.27,0a3.12,3.12,0,0,0,.6,2.09A2,2,0,0,0,544,103a2,2,0,0,0,1.52-.69,3.17,3.17,0,0,0,.61-2.13,3,3,0,0,0-.61-2,2,2,0,0,0-3.06,0A3.09,3.09,0,0,0,541.89,100.22Z"/><path d="M553.6,103a4.68,4.68,0,0,1-1.31.82,3.81,3.81,0,0,1-1.36.24,2.64,2.64,0,0,1-1.84-.59,1.92,1.92,0,0,1-.64-1.49,2,2,0,0,1,.24-1,1.88,1.88,0,0,1,.64-.7,2.85,2.85,0,0,1,.88-.41,10,10,0,0,1,1.1-.18,10.84,10.84,0,0,0,2.19-.43c0-.16,0-.27,0-.32a1.38,1.38,0,0,0-.35-1.06,2.11,2.11,0,0,0-1.4-.41,2.18,2.18,0,0,0-1.28.3,1.87,1.87,0,0,0-.62,1.08l-1.2-.17a3,3,0,0,1,.54-1.24,2.4,2.4,0,0,1,1.09-.74,4.85,4.85,0,0,1,1.65-.25,4.3,4.3,0,0,1,1.51.22,2,2,0,0,1,.85.55,1.93,1.93,0,0,1,.38.83,7.16,7.16,0,0,1,.06,1.14v1.64a17.82,17.82,0,0,0,.08,2.17,3.12,3.12,0,0,0,.31.87h-1.28A2.58,2.58,0,0,1,553.6,103Zm-.1-2.75a8.87,8.87,0,0,1-2,.46,5,5,0,0,0-1.07.25,1.08,1.08,0,0,0-.49.4,1.09,1.09,0,0,0,.2,1.4,1.61,1.61,0,0,0,1.09.33,2.52,2.52,0,0,0,1.27-.31,1.9,1.9,0,0,0,.81-.85,3,3,0,0,0,.2-1.23Z"/><path d="M561.36,103.85v-.91a2.26,2.26,0,0,1-2,1.08,2.81,2.81,0,0,1-1.59-.48,3.1,3.1,0,0,1-1.13-1.34,4.56,4.56,0,0,1-.4-2,5.16,5.16,0,0,1,.36-2,2.8,2.8,0,0,1,1.09-1.36,2.93,2.93,0,0,1,1.62-.47,2.41,2.41,0,0,1,1.17.28,2.32,2.32,0,0,1,.83.72v-3.6h1.22v10Zm-3.89-3.62a3.15,3.15,0,0,0,.59,2.08,1.76,1.76,0,0,0,1.39.69,1.74,1.74,0,0,0,1.37-.66,3.07,3.07,0,0,0,.56-2,3.46,3.46,0,0,0-.57-2.19,1.78,1.78,0,0,0-1.42-.69,1.71,1.71,0,0,0-1.37.67A3.33,3.33,0,0,0,557.47,100.23Z"/><path class="cls-12" d="M448.25,1h-8a2,2,0,0,0-2,2V19a2,2,0,0,0,2,2h12a2,2,0,0,0,2-2V7Z"/><polyline class="cls-12" points="448.25 1 448.25 7 454.25 7"/><line class="cls-12" x1="450.25" y1="12" x2="442.25" y2="12"/><line class="cls-12" x1="450.25" y1="16" x2="442.25" y2="16"/><polyline class="cls-12" points="444.25 8 443.36 8 442.25 8"/><polyline class="cls-12" points="1103.25 8 1103.25 1 1115.25 1 1115.25 8"/><path class="cls-12" d="M1103.25,17h-2a2,2,0,0,1-2-2V10a2,2,0,0,1,2-2h16a2,2,0,0,1,2,2v5a2,2,0,0,1-2,2h-2"/><rect class="cls-12" x="1103.25" y="13" width="12" height="8"/><rect class="cls-12" x="272.25" y="1" width="14" height="20" rx="2"/><line class="cls-12" x1="279.25" y1="17" x2="279.25" y2="17"/><rect class="cls-12" x="770.25" y="3" width="22" height="16" rx="2"/><line class="cls-12" x1="770.25" y1="9" x2="792.25" y2="9"/><line class="cls-12" x1="76.25" y1="5" x2="89.25" y2="5"/><line class="cls-12" x1="76.25" y1="11" x2="89.25" y2="11"/><line class="cls-12" x1="76.25" y1="17" x2="89.25" y2="17"/><line class="cls-12" x1="71.25" y1="5" x2="71.25" y2="5"/><line class="cls-12" x1="71.25" y1="11" x2="71.25" y2="11"/><line class="cls-12" x1="71.25" y1="17" x2="71.25" y2="17"/><polyline class="cls-12" points="616.65 10 619.65 13 629.65 3"/><path class="cls-12" d="M628.25,11v7a2,2,0,0,1-2,2h-14a2,2,0,0,1-2-2V4a2,2,0,0,1,2-2h11"/></g></g></svg>